<mxfile host="Electron" modified="2023-04-26T15:55:49.193Z" agent="Mozilla/5.0 (Windows NT 10.0; Win64; x64) AppleWebKit/537.36 (KHTML, like Gecko) draw.io/21.2.1 Chrome/112.0.5615.87 Electron/24.1.2 Safari/537.36" etag="5oBvPaopz5XCWSJZuMnh" version="21.2.1" type="device" pages="2">
  <diagram name="页-1" id="Page-1">
    <mxGraphModel dx="823" dy="475" grid="1" gridSize="10" guides="1" tooltips="1" connect="1" arrows="1" fold="1" page="1" pageScale="1" pageWidth="827" pageHeight="1169" math="0" shadow="0">
      <root>
        <mxCell id="0" />
        <mxCell id="1" parent="0" />
        <UserObject label="" tags="背景" id="2">
          <mxCell style="vsdxID=49;fillColor=#ffffff;gradientColor=none;shape=stencil(nZBLDoAgDERP0z3SIyjew0SURgSD+Lu9kMZoXLhwN9O+tukAlrNpJg1SzDH4QW/URgNYgZTkjA4UkwJUgGXng+6DX1zLfmoymdXo17xh5zmRJ6Q42BWCfc2oJfdAr+Yv+AP9Cb7OJ3H/2JG1HNGz/84klThPVCc=);dashed=1;strokeColor=#000000;points=[[1,0.5,0],[0.5,0,0],[0.5,0.5,0],[0.5,0.5,0]];labelBackgroundColor=none;rounded=0;html=1;whiteSpace=wrap;" parent="1" vertex="1">
            <mxGeometry x="254" y="290" width="629" height="294" as="geometry" />
          </mxCell>
        </UserObject>
        <UserObject label="&lt;div style=&quot;font-size: 1px&quot;&gt;&lt;font style=&quot;font-size:14.11px;font-family:SimSun;color:#feffff;direction:ltr;letter-spacing:0px;line-height:120%;opacity:1&quot;&gt;计算单元&lt;br/&gt;&lt;/font&gt;&lt;/div&gt;" tags="背景" id="3">
          <mxCell style="verticalAlign=middle;align=center;overflow=width;vsdxID=1;fillColor=#538135;gradientColor=none;shape=stencil(nZBLDoAgDERP0z3SIyjew0SURgSD+Lu9kMZoXLhwN9O+tukAlrNpJg1SzDH4QW/URgNYgZTkjA4UkwJUgGXng+6DX1zLfmoymdXo17xh5zmRJ6Q42BWCfc2oJfdAr+Yv+AP9Cb7OJ3H/2JG1HNGz/84klThPVCc=);strokeColor=#538135;points=[[1,0.5,0],[0.5,0,0],[0.5,0.5,0],[0.5,0.5,0]];labelBackgroundColor=none;rounded=0;html=1;whiteSpace=wrap;" parent="1" vertex="1">
            <mxGeometry x="290" y="320" width="140" height="25" as="geometry" />
          </mxCell>
        </UserObject>
        <UserObject label="&lt;div style=&quot;font-size: 1px&quot;&gt;&lt;font style=&quot;font-size:14.11px;font-family:SimSun;color:#feffff;direction:ltr;letter-spacing:0px;line-height:120%;opacity:1&quot;&gt;交换机&lt;br/&gt;&lt;/font&gt;&lt;/div&gt;" tags="背景" id="4">
          <mxCell style="verticalAlign=middle;align=center;overflow=width;vsdxID=4;fillColor=#c55a11;gradientColor=none;shape=stencil(nZBLDoAgDERP0z3SIyjew0SURgSD+Lu9kMZoXLhwN9O+tukAlrNpJg1SzDH4QW/URgNYgZTkjA4UkwJUgGXng+6DX1zLfmoymdXo17xh5zmRJ6Q42BWCfc2oJfdAr+Yv+AP9Cb7OJ3H/2JG1HNGz/84klThPVCc=);strokeColor=#c55a11;points=[[1,0.5,0],[0.5,0,0],[0.5,0.5,0],[0.5,0.5,0]];labelBackgroundColor=none;rounded=0;html=1;whiteSpace=wrap;" parent="1" vertex="1">
            <mxGeometry x="290" y="388" width="140" height="25" as="geometry" />
          </mxCell>
        </UserObject>
        <UserObject label="&lt;div style=&quot;font-size: 1px&quot;&gt;&lt;font style=&quot;font-size:14.11px;font-family:SimSun;color:#feffff;direction:ltr;letter-spacing:0px;line-height:120%;opacity:1&quot;&gt;IO单元&lt;br/&gt;&lt;/font&gt;&lt;/div&gt;" tags="背景" id="5">
          <mxCell style="verticalAlign=middle;align=center;overflow=width;vsdxID=6;fillColor=#4672c4;gradientColor=none;shape=stencil(nZBLDoAgDERP0z3SIyjew0SURgSD+Lu9kMZoXLhwN9O+tukAlrNpJg1SzDH4QW/URgNYgZTkjA4UkwJUgGXng+6DX1zLfmoymdXo17xh5zmRJ6Q42BWCfc2oJfdAr+Yv+AP9Cb7OJ3H/2JG1HNGz/84klThPVCc=);strokeColor=#939393;points=[[1,0.5,0],[0.5,0,0],[0.5,0.5,0],[0.5,0.5,0]];labelBackgroundColor=none;rounded=0;html=1;whiteSpace=wrap;" parent="1" vertex="1">
            <mxGeometry x="290" y="456" width="24" height="110" as="geometry" />
          </mxCell>
        </UserObject>
        <UserObject label="&lt;div style=&quot;font-size: 1px&quot;&gt;&lt;font style=&quot;font-size:14.11px;font-family:SimSun;color:#feffff;direction:ltr;letter-spacing:0px;line-height:120%;opacity:1&quot;&gt;控制单元&lt;br/&gt;&lt;/font&gt;&lt;/div&gt;" tags="背景" id="6">
          <mxCell style="verticalAlign=middle;align=center;overflow=width;vsdxID=7;fillColor=#4672c4;gradientColor=none;shape=stencil(nZBLDoAgDERP0z3SIyjew0SURgSD+Lu9kMZoXLhwN9O+tukAlrNpJg1SzDH4QW/URgNYgZTkjA4UkwJUgGXng+6DX1zLfmoymdXo17xh5zmRJ6Q42BWCfc2oJfdAr+Yv+AP9Cb7OJ3H/2JG1HNGz/84klThPVCc=);strokeColor=#939393;points=[[1,0.5,0],[0.5,0,0],[0.5,0.5,0],[0.5,0.5,0]];labelBackgroundColor=none;rounded=0;html=1;whiteSpace=wrap;" parent="1" vertex="1">
            <mxGeometry x="348" y="456" width="24" height="110" as="geometry" />
          </mxCell>
        </UserObject>
        <UserObject label="&lt;div style=&quot;font-size: 1px&quot;&gt;&lt;font style=&quot;font-size:14.11px;font-family:SimSun;color:#feffff;direction:ltr;letter-spacing:0px;line-height:120%;opacity:1&quot;&gt;传感器单元&lt;br/&gt;&lt;/font&gt;&lt;/div&gt;" tags="背景" id="7">
          <mxCell style="verticalAlign=middle;align=center;overflow=width;vsdxID=8;fillColor=#4672c4;gradientColor=none;shape=stencil(nZBLDoAgDERP0z3SIyjew0SURgSD+Lu9kMZoXLhwN9O+tukAlrNpJg1SzDH4QW/URgNYgZTkjA4UkwJUgGXng+6DX1zLfmoymdXo17xh5zmRJ6Q42BWCfc2oJfdAr+Yv+AP9Cb7OJ3H/2JG1HNGz/84klThPVCc=);strokeColor=#939393;points=[[1,0.5,0],[0.5,0,0],[0.5,0.5,0],[0.5,0.5,0]];labelBackgroundColor=none;rounded=0;html=1;whiteSpace=wrap;" parent="1" vertex="1">
            <mxGeometry x="406" y="456" width="24" height="110" as="geometry" />
          </mxCell>
        </UserObject>
        <UserObject label="&lt;div style=&quot;font-size: 1px&quot;&gt;&lt;font style=&quot;font-size:14.11px;font-family:SimSun;color:#feffff;direction:ltr;letter-spacing:0px;line-height:120%;opacity:1&quot;&gt;计算单元&lt;br/&gt;&lt;/font&gt;&lt;/div&gt;" tags="背景" id="8">
          <mxCell style="verticalAlign=middle;align=center;overflow=width;vsdxID=12;fillColor=#538135;gradientColor=none;shape=stencil(nZBLDoAgDERP0z3SIyjew0SURgSD+Lu9kMZoXLhwN9O+tukAlrNpJg1SzDH4QW/URgNYgZTkjA4UkwJUgGXng+6DX1zLfmoymdXo17xh5zmRJ6Q42BWCfc2oJfdAr+Yv+AP9Cb7OJ3H/2JG1HNGz/84klThPVCc=);strokeColor=#538135;points=[[1,0.5,0],[0.5,0,0],[0.5,0.5,0],[0.5,0.5,0]];labelBackgroundColor=none;rounded=0;html=1;whiteSpace=wrap;" parent="1" vertex="1">
            <mxGeometry x="500" y="320" width="140" height="25" as="geometry" />
          </mxCell>
        </UserObject>
        <UserObject label="&lt;div style=&quot;font-size: 1px&quot;&gt;&lt;font style=&quot;font-size:14.11px;font-family:SimSun;color:#feffff;direction:ltr;letter-spacing:0px;line-height:120%;opacity:1&quot;&gt;交换机&lt;br/&gt;&lt;/font&gt;&lt;/div&gt;" tags="背景" id="9">
          <mxCell style="verticalAlign=middle;align=center;overflow=width;vsdxID=13;fillColor=#c55a11;gradientColor=none;shape=stencil(nZBLDoAgDERP0z3SIyjew0SURgSD+Lu9kMZoXLhwN9O+tukAlrNpJg1SzDH4QW/URgNYgZTkjA4UkwJUgGXng+6DX1zLfmoymdXo17xh5zmRJ6Q42BWCfc2oJfdAr+Yv+AP9Cb7OJ3H/2JG1HNGz/84klThPVCc=);strokeColor=#c55a11;points=[[1,0.5,0],[0.5,0,0],[0.5,0.5,0],[0.5,0.5,0]];labelBackgroundColor=none;rounded=0;html=1;whiteSpace=wrap;" parent="1" vertex="1">
            <mxGeometry x="500" y="388" width="140" height="25" as="geometry" />
          </mxCell>
        </UserObject>
        <UserObject label="&lt;div style=&quot;font-size: 1px&quot;&gt;&lt;font style=&quot;font-size:14.11px;font-family:SimSun;color:#feffff;direction:ltr;letter-spacing:0px;line-height:120%;opacity:1&quot;&gt;IO单元&lt;br/&gt;&lt;/font&gt;&lt;/div&gt;" tags="背景" id="10">
          <mxCell style="verticalAlign=middle;align=center;overflow=width;vsdxID=15;fillColor=#4672c4;gradientColor=none;shape=stencil(nZBLDoAgDERP0z3SIyjew0SURgSD+Lu9kMZoXLhwN9O+tukAlrNpJg1SzDH4QW/URgNYgZTkjA4UkwJUgGXng+6DX1zLfmoymdXo17xh5zmRJ6Q42BWCfc2oJfdAr+Yv+AP9Cb7OJ3H/2JG1HNGz/84klThPVCc=);strokeColor=#939393;points=[[1,0.5,0],[0.5,0,0],[0.5,0.5,0],[0.5,0.5,0]];labelBackgroundColor=none;rounded=0;html=1;whiteSpace=wrap;" parent="1" vertex="1">
            <mxGeometry x="500" y="456" width="24" height="110" as="geometry" />
          </mxCell>
        </UserObject>
        <UserObject label="&lt;div style=&quot;font-size: 1px&quot;&gt;&lt;font style=&quot;font-size:14.11px;font-family:SimSun;color:#feffff;direction:ltr;letter-spacing:0px;line-height:120%;opacity:1&quot;&gt;控制单元&lt;br/&gt;&lt;/font&gt;&lt;/div&gt;" tags="背景" id="11">
          <mxCell style="verticalAlign=middle;align=center;overflow=width;vsdxID=16;fillColor=#4672c4;gradientColor=none;shape=stencil(nZBLDoAgDERP0z3SIyjew0SURgSD+Lu9kMZoXLhwN9O+tukAlrNpJg1SzDH4QW/URgNYgZTkjA4UkwJUgGXng+6DX1zLfmoymdXo17xh5zmRJ6Q42BWCfc2oJfdAr+Yv+AP9Cb7OJ3H/2JG1HNGz/84klThPVCc=);strokeColor=#939393;points=[[1,0.5,0],[0.5,0,0],[0.5,0.5,0],[0.5,0.5,0]];labelBackgroundColor=none;rounded=0;html=1;whiteSpace=wrap;" parent="1" vertex="1">
            <mxGeometry x="558" y="456" width="24" height="110" as="geometry" />
          </mxCell>
        </UserObject>
        <UserObject label="&lt;div style=&quot;font-size: 1px&quot;&gt;&lt;font style=&quot;font-size:14.11px;font-family:SimSun;color:#feffff;direction:ltr;letter-spacing:0px;line-height:120%;opacity:1&quot;&gt;传感器单元&lt;br/&gt;&lt;/font&gt;&lt;/div&gt;" tags="背景" id="12">
          <mxCell style="verticalAlign=middle;align=center;overflow=width;vsdxID=17;fillColor=#4672c4;gradientColor=none;shape=stencil(nZBLDoAgDERP0z3SIyjew0SURgSD+Lu9kMZoXLhwN9O+tukAlrNpJg1SzDH4QW/URgNYgZTkjA4UkwJUgGXng+6DX1zLfmoymdXo17xh5zmRJ6Q42BWCfc2oJfdAr+Yv+AP9Cb7OJ3H/2JG1HNGz/84klThPVCc=);strokeColor=#939393;points=[[1,0.5,0],[0.5,0,0],[0.5,0.5,0],[0.5,0.5,0]];labelBackgroundColor=none;rounded=0;html=1;whiteSpace=wrap;" parent="1" vertex="1">
            <mxGeometry x="616" y="456" width="24" height="110" as="geometry" />
          </mxCell>
        </UserObject>
        <UserObject label="&lt;div style=&quot;font-size: 1px&quot;&gt;&lt;font style=&quot;font-size:14.11px;font-family:SimSun;color:#feffff;direction:ltr;letter-spacing:0px;line-height:120%;opacity:1&quot;&gt;计算单元&lt;br/&gt;&lt;/font&gt;&lt;/div&gt;" tags="背景" id="13">
          <mxCell style="verticalAlign=middle;align=center;overflow=width;vsdxID=21;fillColor=#538135;gradientColor=none;shape=stencil(nZBLDoAgDERP0z3SIyjew0SURgSD+Lu9kMZoXLhwN9O+tukAlrNpJg1SzDH4QW/URgNYgZTkjA4UkwJUgGXng+6DX1zLfmoymdXo17xh5zmRJ6Q42BWCfc2oJfdAr+Yv+AP9Cb7OJ3H/2JG1HNGz/84klThPVCc=);strokeColor=#538135;points=[[1,0.5,0],[0.5,0,0],[0.5,0.5,0],[0.5,0.5,0]];labelBackgroundColor=none;rounded=0;html=1;whiteSpace=wrap;" parent="1" vertex="1">
            <mxGeometry x="710" y="320" width="140" height="25" as="geometry" />
          </mxCell>
        </UserObject>
        <UserObject label="&lt;div style=&quot;font-size: 1px&quot;&gt;&lt;font style=&quot;font-size:14.11px;font-family:SimSun;color:#feffff;direction:ltr;letter-spacing:0px;line-height:120%;opacity:1&quot;&gt;交换机&lt;br/&gt;&lt;/font&gt;&lt;/div&gt;" tags="背景" id="14">
          <mxCell style="verticalAlign=middle;align=center;overflow=width;vsdxID=22;fillColor=#c55a11;gradientColor=none;shape=stencil(nZBLDoAgDERP0z3SIyjew0SURgSD+Lu9kMZoXLhwN9O+tukAlrNpJg1SzDH4QW/URgNYgZTkjA4UkwJUgGXng+6DX1zLfmoymdXo17xh5zmRJ6Q42BWCfc2oJfdAr+Yv+AP9Cb7OJ3H/2JG1HNGz/84klThPVCc=);strokeColor=#c55a11;points=[[1,0.5,0],[0.5,0,0],[0.5,0.5,0],[0.5,0.5,0]];labelBackgroundColor=none;rounded=0;html=1;whiteSpace=wrap;" parent="1" vertex="1">
            <mxGeometry x="710" y="388" width="140" height="25" as="geometry" />
          </mxCell>
        </UserObject>
        <UserObject label="&lt;div style=&quot;font-size: 1px&quot;&gt;&lt;font style=&quot;font-size:14.11px;font-family:SimSun;color:#feffff;direction:ltr;letter-spacing:0px;line-height:120%;opacity:1&quot;&gt;IO单元&lt;br/&gt;&lt;/font&gt;&lt;/div&gt;" tags="背景" id="15">
          <mxCell style="verticalAlign=middle;align=center;overflow=width;vsdxID=24;fillColor=#4672c4;gradientColor=none;shape=stencil(nZBLDoAgDERP0z3SIyjew0SURgSD+Lu9kMZoXLhwN9O+tukAlrNpJg1SzDH4QW/URgNYgZTkjA4UkwJUgGXng+6DX1zLfmoymdXo17xh5zmRJ6Q42BWCfc2oJfdAr+Yv+AP9Cb7OJ3H/2JG1HNGz/84klThPVCc=);strokeColor=#939393;points=[[1,0.5,0],[0.5,0,0],[0.5,0.5,0],[0.5,0.5,0]];labelBackgroundColor=none;rounded=0;html=1;whiteSpace=wrap;" parent="1" vertex="1">
            <mxGeometry x="710" y="456" width="24" height="110" as="geometry" />
          </mxCell>
        </UserObject>
        <UserObject label="&lt;div style=&quot;font-size: 1px&quot;&gt;&lt;font style=&quot;font-size:14.11px;font-family:SimSun;color:#feffff;direction:ltr;letter-spacing:0px;line-height:120%;opacity:1&quot;&gt;控制单元&lt;br/&gt;&lt;/font&gt;&lt;/div&gt;" tags="背景" id="16">
          <mxCell style="verticalAlign=middle;align=center;overflow=width;vsdxID=25;fillColor=#4672c4;gradientColor=none;shape=stencil(nZBLDoAgDERP0z3SIyjew0SURgSD+Lu9kMZoXLhwN9O+tukAlrNpJg1SzDH4QW/URgNYgZTkjA4UkwJUgGXng+6DX1zLfmoymdXo17xh5zmRJ6Q42BWCfc2oJfdAr+Yv+AP9Cb7OJ3H/2JG1HNGz/84klThPVCc=);strokeColor=#939393;points=[[1,0.5,0],[0.5,0,0],[0.5,0.5,0],[0.5,0.5,0]];labelBackgroundColor=none;rounded=0;html=1;whiteSpace=wrap;" parent="1" vertex="1">
            <mxGeometry x="768" y="456" width="24" height="110" as="geometry" />
          </mxCell>
        </UserObject>
        <UserObject label="&lt;div style=&quot;font-size: 1px&quot;&gt;&lt;font style=&quot;font-size:14.11px;font-family:SimSun;color:#feffff;direction:ltr;letter-spacing:0px;line-height:120%;opacity:1&quot;&gt;传感器单元&lt;br/&gt;&lt;/font&gt;&lt;/div&gt;" tags="背景" id="17">
          <mxCell style="verticalAlign=middle;align=center;overflow=width;vsdxID=26;fillColor=#4672c4;gradientColor=none;shape=stencil(nZBLDoAgDERP0z3SIyjew0SURgSD+Lu9kMZoXLhwN9O+tukAlrNpJg1SzDH4QW/URgNYgZTkjA4UkwJUgGXng+6DX1zLfmoymdXo17xh5zmRJ6Q42BWCfc2oJfdAr+Yv+AP9Cb7OJ3H/2JG1HNGz/84klThPVCc=);strokeColor=#939393;points=[[1,0.5,0],[0.5,0,0],[0.5,0.5,0],[0.5,0.5,0]];labelBackgroundColor=none;rounded=0;html=1;whiteSpace=wrap;" parent="1" vertex="1">
            <mxGeometry x="826" y="456" width="24" height="110" as="geometry" />
          </mxCell>
        </UserObject>
        <UserObject label="&lt;div style=&quot;font-size: 1px&quot;&gt;&lt;font style=&quot;font-size:12.7px;font-family:SimSun;color:#000000;direction:ltr;letter-spacing:0px;line-height:120%;opacity:1&quot;&gt;同步总线&lt;br/&gt;&lt;/font&gt;&lt;/div&gt;" tags="背景" id="18">
          <mxCell style="verticalAlign=middle;align=center;overflow=width;vsdxID=32;fillColor=none;gradientColor=none;shape=stencil(nZBLDoAgDERP0z3SIyjew0SURgSD+Lu9kMZoXLhwN9O+tukAlrNpJg1SzDH4QW/URgNYgZTkjA4UkwJUgGXng+6DX1zLfmoymdXo17xh5zmRJ6Q42BWCfc2oJfdAr+Yv+AP9Cb7OJ3H/2JG1HNGz/84klThPVCc=);strokeColor=none;points=[];labelBackgroundColor=none;rounded=0;html=1;whiteSpace=wrap;" parent="1" vertex="1">
            <mxGeometry x="160" y="323" width="80" height="13" as="geometry" />
          </mxCell>
        </UserObject>
        <UserObject label="&lt;div style=&quot;font-size: 1px&quot;&gt;&lt;font style=&quot;font-size:12.7px;font-family:SimSun;color:#000000;direction:ltr;letter-spacing:0px;line-height:120%;opacity:1&quot;&gt;控制总线&lt;br/&gt;&lt;/font&gt;&lt;/div&gt;" tags="背景" id="19">
          <mxCell style="verticalAlign=middle;align=center;overflow=width;vsdxID=33;fillColor=none;gradientColor=none;shape=stencil(nZBLDoAgDERP0z3SIyjew0SURgSD+Lu9kMZoXLhwN9O+tukAlrNpJg1SzDH4QW/URgNYgZTkjA4UkwJUgGXng+6DX1zLfmoymdXo17xh5zmRJ6Q42BWCfc2oJfdAr+Yv+AP9Cb7OJ3H/2JG1HNGz/84klThPVCc=);strokeColor=none;points=[];labelBackgroundColor=none;rounded=0;html=1;whiteSpace=wrap;" parent="1" vertex="1">
            <mxGeometry x="160" y="366" width="80" height="33" as="geometry" />
          </mxCell>
        </UserObject>
        <UserObject label="" tags="连接线" id="42">
          <mxCell style="vsdxID=34;edgeStyle=none;startArrow=classic;endArrow=classic;startSize=5;endSize=5;strokeColor=#f4b183;spacingTop=0;spacingBottom=0;spacingLeft=0;spacingRight=0;verticalAlign=middle;html=1;labelBackgroundColor=#ffffff;rounded=0;" parent="1" edge="1">
            <mxGeometry relative="1" as="geometry">
              <mxPoint as="offset" />
              <Array as="points" />
              <mxPoint x="168" y="347" as="sourcePoint" />
              <mxPoint x="232" y="347" as="targetPoint" />
            </mxGeometry>
          </mxCell>
        </UserObject>
        <UserObject label="" tags="连接线" id="43">
          <mxCell style="vsdxID=35;edgeStyle=none;startArrow=classic;endArrow=classic;startSize=5;endSize=5;strokeColor=#a8d08d;spacingTop=0;spacingBottom=0;spacingLeft=0;spacingRight=0;verticalAlign=middle;html=1;labelBackgroundColor=#ffffff;rounded=0;" parent="1" edge="1">
            <mxGeometry relative="1" as="geometry">
              <mxPoint as="offset" />
              <Array as="points" />
              <mxPoint x="168" y="400" as="sourcePoint" />
              <mxPoint x="232" y="400" as="targetPoint" />
            </mxGeometry>
          </mxCell>
        </UserObject>
        <UserObject label="&lt;div style=&quot;font-size: 1px&quot;&gt;&lt;font style=&quot;font-size:14.11px;font-family:SimSun;color:#000000;direction:ltr;letter-spacing:0px;line-height:120%;opacity:1&quot;&gt;其它系统&lt;br/&gt;&lt;/font&gt;&lt;/div&gt;" tags="背景" id="20">
          <mxCell style="verticalAlign=middle;align=center;overflow=width;vsdxID=51;fillColor=#ffffff;gradientColor=none;shape=stencil(nZBLDoAgDERP0z3SIyjew0SURgSD+Lu9kMZoXLhwN9O+tukAlrNpJg1SzDH4QW/URgNYgZTkjA4UkwJUgGXng+6DX1zLfmoymdXo17xh5zmRJ6Q42BWCfc2oJfdAr+Yv+AP9Cb7OJ3H/2JG1HNGz/84klThPVCc=);dashed=1;strokeColor=#000000;points=[[1,0.5,0],[0.5,0,0],[0.5,0.5,0],[0.5,0.5,0]];labelBackgroundColor=none;rounded=0;html=1;whiteSpace=wrap;" parent="1" vertex="1">
            <mxGeometry x="254" y="226" width="629" height="33" as="geometry" />
          </mxCell>
        </UserObject>
        <mxCell id="21" parent="1" vertex="1">
          <mxGeometry x="780" y="260" as="geometry" />
        </mxCell>
        <UserObject label="" tags="连接线" id="22">
          <mxCell style="vsdxID=48;edgeStyle=none;startArrow=classic;endArrow=classic;startSize=5;endSize=5;strokeColor=#a8d08d;spacingTop=0;spacingBottom=0;spacingLeft=0;spacingRight=0;verticalAlign=middle;html=1;labelBackgroundColor=#ffffff;rounded=0;entryX=0.5;entryY=0;entryDx=0;entryDy=0;entryPerimeter=0;" parent="1" source="21" target="13" edge="1">
            <mxGeometry relative="1" as="geometry">
              <mxPoint x="-10" as="offset" />
              <Array as="points" />
            </mxGeometry>
          </mxCell>
        </UserObject>
        <mxCell id="23" parent="1" vertex="1">
          <mxGeometry x="570" y="260" as="geometry" />
        </mxCell>
        <UserObject label="" tags="连接线" id="24">
          <mxCell style="vsdxID=47;edgeStyle=none;startArrow=classic;endArrow=classic;startSize=5;endSize=5;strokeColor=#a8d08d;spacingTop=0;spacingBottom=0;spacingLeft=0;spacingRight=0;verticalAlign=middle;html=1;labelBackgroundColor=#ffffff;rounded=0;entryX=0.5;entryY=0;entryDx=0;entryDy=0;entryPerimeter=0;" parent="1" source="23" target="8" edge="1">
            <mxGeometry relative="1" as="geometry">
              <mxPoint x="10" as="offset" />
              <Array as="points" />
            </mxGeometry>
          </mxCell>
        </UserObject>
        <mxCell id="25" parent="1" vertex="1">
          <mxGeometry x="360" y="260" as="geometry" />
        </mxCell>
        <UserObject label="" tags="连接线" id="26">
          <mxCell style="vsdxID=45;edgeStyle=none;startArrow=classic;endArrow=classic;startSize=5;endSize=5;strokeColor=#a8d08d;spacingTop=0;spacingBottom=0;spacingLeft=0;spacingRight=0;verticalAlign=middle;html=1;labelBackgroundColor=#ffffff;rounded=0;entryX=0.5;entryY=0;entryDx=0;entryDy=0;entryPerimeter=0;" parent="1" source="25" target="3" edge="1">
            <mxGeometry relative="1" as="geometry">
              <mxPoint x="-10" as="offset" />
              <Array as="points" />
            </mxGeometry>
          </mxCell>
        </UserObject>
        <UserObject label="" tags="连接线" id="27">
          <mxCell style="vsdxID=14;edgeStyle=none;startArrow=classic;endArrow=classic;startSize=5;endSize=5;strokeColor=#a8d08d;spacingTop=0;spacingBottom=0;spacingLeft=0;spacingRight=0;verticalAlign=middle;html=1;labelBackgroundColor=#ffffff;rounded=0;exitX=0.5;exitY=1.04;exitDx=0;exitDy=0;exitPerimeter=0;entryX=0.5;entryY=0;entryDx=0;entryDy=0;entryPerimeter=0;" parent="1" source="8" target="9" edge="1">
            <mxGeometry relative="1" as="geometry">
              <mxPoint x="10" as="offset" />
              <Array as="points" />
            </mxGeometry>
          </mxCell>
        </UserObject>
        <UserObject label="" tags="连接线" id="28">
          <mxCell style="vsdxID=5;edgeStyle=none;startArrow=classic;endArrow=classic;startSize=5;endSize=5;strokeColor=#a8d08d;spacingTop=0;spacingBottom=0;spacingLeft=0;spacingRight=0;verticalAlign=middle;html=1;labelBackgroundColor=#ffffff;rounded=0;exitX=0.5;exitY=1.04;exitDx=0;exitDy=0;exitPerimeter=0;entryX=0.5;entryY=0;entryDx=0;entryDy=0;entryPerimeter=0;" parent="1" source="3" target="4" edge="1">
            <mxGeometry relative="1" as="geometry">
              <mxPoint x="10" as="offset" />
              <Array as="points" />
            </mxGeometry>
          </mxCell>
        </UserObject>
        <UserObject label="" tags="连接线" id="29">
          <mxCell style="vsdxID=9;edgeStyle=none;startArrow=classic;endArrow=classic;startSize=5;endSize=5;strokeColor=#a8d08d;spacingTop=0;spacingBottom=0;spacingLeft=0;spacingRight=0;verticalAlign=middle;html=1;labelBackgroundColor=#ffffff;rounded=0;exitX=0.5;exitY=1.04;exitDx=0;exitDy=0;exitPerimeter=0;entryX=0.5;entryY=0;entryDx=0;entryDy=0;entryPerimeter=0;" parent="1" source="4" target="6" edge="1">
            <mxGeometry relative="1" as="geometry">
              <mxPoint x="10" as="offset" />
              <Array as="points" />
            </mxGeometry>
          </mxCell>
        </UserObject>
        <UserObject label="" tags="连接线" id="30">
          <mxCell style="vsdxID=10;edgeStyle=none;startArrow=classic;endArrow=classic;startSize=5;endSize=5;strokeColor=#a8d08d;spacingTop=0;spacingBottom=0;spacingLeft=0;spacingRight=0;verticalAlign=middle;html=1;labelBackgroundColor=#ffffff;rounded=0;exitX=0.5;exitY=0;exitDx=0;exitDy=0;exitPerimeter=0;entryX=0.5;entryY=1.04;entryDx=0;entryDy=0;entryPerimeter=0;" parent="1" source="5" target="4" edge="1">
            <mxGeometry relative="1" as="geometry">
              <mxPoint as="offset" />
              <Array as="points">
                <mxPoint x="302" y="438.12" />
                <mxPoint x="360" y="438.12" />
              </Array>
            </mxGeometry>
          </mxCell>
        </UserObject>
        <UserObject label="" tags="连接线" id="31">
          <mxCell style="vsdxID=11;edgeStyle=none;startArrow=classic;endArrow=classic;startSize=5;endSize=5;strokeColor=#a8d08d;spacingTop=0;spacingBottom=0;spacingLeft=0;spacingRight=0;verticalAlign=middle;html=1;labelBackgroundColor=#ffffff;rounded=0;exitX=0.5;exitY=0;exitDx=0;exitDy=0;exitPerimeter=0;entryX=0.5;entryY=1.04;entryDx=0;entryDy=0;entryPerimeter=0;" parent="1" source="7" target="4" edge="1">
            <mxGeometry relative="1" as="geometry">
              <mxPoint x="-1" as="offset" />
              <Array as="points">
                <mxPoint x="418" y="438.12" />
                <mxPoint x="360" y="438.12" />
              </Array>
            </mxGeometry>
          </mxCell>
        </UserObject>
        <UserObject label="" tags="连接线" id="32">
          <mxCell style="vsdxID=54;edgeStyle=none;dashed=1;startArrow=classic;endArrow=classic;startSize=5;endSize=5;strokeColor=#f4b183;spacingTop=0;spacingBottom=0;spacingLeft=0;spacingRight=0;verticalAlign=middle;html=1;labelBackgroundColor=#ffffff;rounded=0;exitX=0;exitY=0.52;exitDx=0;exitDy=0;exitPerimeter=0;entryX=1;entryY=0.52;entryDx=0;entryDy=0;entryPerimeter=0;jumpStyle=arc;" parent="1" source="3" target="13" edge="1">
            <mxGeometry relative="1" as="geometry">
              <mxPoint x="-1" as="offset" />
              <Array as="points">
                <mxPoint x="272.12" y="333" />
                <mxPoint x="272.12" y="363.78" />
                <mxPoint x="356.67" y="363.78" />
                <mxPoint x="566.67" y="363.78" />
                <mxPoint x="776.67" y="363.78" />
                <mxPoint x="867.88" y="363.78" />
                <mxPoint x="867.88" y="333" />
              </Array>
            </mxGeometry>
          </mxCell>
        </UserObject>
        <UserObject label="" tags="连接线" id="33">
          <mxCell style="vsdxID=37;edgeStyle=none;startArrow=classic;endArrow=classic;startSize=5;endSize=5;strokeColor=#f4b183;spacingTop=0;spacingBottom=0;spacingLeft=0;spacingRight=0;verticalAlign=middle;html=1;labelBackgroundColor=#ffffff;rounded=0;exitX=1;exitY=0.52;exitDx=0;exitDy=0;exitPerimeter=0;entryX=0;entryY=0.52;entryDx=0;entryDy=0;entryPerimeter=0;" parent="1" source="8" target="13" edge="1">
            <mxGeometry relative="1" as="geometry">
              <mxPoint as="offset" />
              <Array as="points" />
            </mxGeometry>
          </mxCell>
        </UserObject>
        <UserObject label="" tags="连接线" id="34">
          <mxCell style="vsdxID=36;edgeStyle=none;startArrow=classic;endArrow=classic;startSize=5;endSize=5;strokeColor=#f4b183;spacingTop=0;spacingBottom=0;spacingLeft=0;spacingRight=0;verticalAlign=middle;html=1;labelBackgroundColor=#ffffff;rounded=0;exitX=1;exitY=0.52;exitDx=0;exitDy=0;exitPerimeter=0;entryX=0;entryY=0.52;entryDx=0;entryDy=0;entryPerimeter=0;" parent="1" source="3" target="8" edge="1">
            <mxGeometry relative="1" as="geometry">
              <mxPoint as="offset" />
              <Array as="points" />
            </mxGeometry>
          </mxCell>
        </UserObject>
        <UserObject label="" tags="连接线" id="35">
          <mxCell style="vsdxID=29;edgeStyle=none;startArrow=classic;endArrow=classic;startSize=5;endSize=5;strokeColor=#a8d08d;spacingTop=0;spacingBottom=0;spacingLeft=0;spacingRight=0;verticalAlign=middle;html=1;labelBackgroundColor=#ffffff;rounded=0;exitX=0.5;exitY=0;exitDx=0;exitDy=0;exitPerimeter=0;entryX=0.5;entryY=1.04;entryDx=0;entryDy=0;entryPerimeter=0;" parent="1" source="17" target="14" edge="1">
            <mxGeometry relative="1" as="geometry">
              <mxPoint x="-1" as="offset" />
              <Array as="points">
                <mxPoint x="838" y="438.12" />
                <mxPoint x="780" y="438.12" />
              </Array>
            </mxGeometry>
          </mxCell>
        </UserObject>
        <UserObject label="" tags="连接线" id="36">
          <mxCell style="vsdxID=28;edgeStyle=none;startArrow=classic;endArrow=classic;startSize=5;endSize=5;strokeColor=#a8d08d;spacingTop=0;spacingBottom=0;spacingLeft=0;spacingRight=0;verticalAlign=middle;html=1;labelBackgroundColor=#ffffff;rounded=0;exitX=0.5;exitY=0;exitDx=0;exitDy=0;exitPerimeter=0;entryX=0.5;entryY=1.04;entryDx=0;entryDy=0;entryPerimeter=0;" parent="1" source="15" target="14" edge="1">
            <mxGeometry relative="1" as="geometry">
              <mxPoint as="offset" />
              <Array as="points">
                <mxPoint x="722" y="438.12" />
                <mxPoint x="780" y="438.12" />
              </Array>
            </mxGeometry>
          </mxCell>
        </UserObject>
        <UserObject label="" tags="连接线" id="37">
          <mxCell style="vsdxID=27;edgeStyle=none;startArrow=classic;endArrow=classic;startSize=5;endSize=5;strokeColor=#a8d08d;spacingTop=0;spacingBottom=0;spacingLeft=0;spacingRight=0;verticalAlign=middle;html=1;labelBackgroundColor=#ffffff;rounded=0;exitX=0.5;exitY=1.04;exitDx=0;exitDy=0;exitPerimeter=0;entryX=0.5;entryY=0;entryDx=0;entryDy=0;entryPerimeter=0;" parent="1" source="14" target="16" edge="1">
            <mxGeometry relative="1" as="geometry">
              <mxPoint x="10" as="offset" />
              <Array as="points" />
            </mxGeometry>
          </mxCell>
        </UserObject>
        <UserObject label="" tags="连接线" id="38">
          <mxCell style="vsdxID=23;edgeStyle=none;startArrow=classic;endArrow=classic;startSize=5;endSize=5;strokeColor=#a8d08d;spacingTop=0;spacingBottom=0;spacingLeft=0;spacingRight=0;verticalAlign=middle;html=1;labelBackgroundColor=#ffffff;rounded=0;exitX=0.5;exitY=1.04;exitDx=0;exitDy=0;exitPerimeter=0;entryX=0.5;entryY=0;entryDx=0;entryDy=0;entryPerimeter=0;" parent="1" source="13" target="14" edge="1">
            <mxGeometry relative="1" as="geometry">
              <mxPoint x="10" as="offset" />
              <Array as="points" />
            </mxGeometry>
          </mxCell>
        </UserObject>
        <UserObject label="" tags="连接线" id="39">
          <mxCell style="vsdxID=20;edgeStyle=none;startArrow=classic;endArrow=classic;startSize=5;endSize=5;strokeColor=#a8d08d;spacingTop=0;spacingBottom=0;spacingLeft=0;spacingRight=0;verticalAlign=middle;html=1;labelBackgroundColor=#ffffff;rounded=0;exitX=0.5;exitY=0;exitDx=0;exitDy=0;exitPerimeter=0;entryX=0.5;entryY=1.04;entryDx=0;entryDy=0;entryPerimeter=0;" parent="1" source="12" target="9" edge="1">
            <mxGeometry relative="1" as="geometry">
              <mxPoint x="-1" as="offset" />
              <Array as="points">
                <mxPoint x="628" y="438.12" />
                <mxPoint x="570" y="438.12" />
              </Array>
            </mxGeometry>
          </mxCell>
        </UserObject>
        <UserObject label="" tags="连接线" id="40">
          <mxCell style="vsdxID=19;edgeStyle=none;startArrow=classic;endArrow=classic;startSize=5;endSize=5;strokeColor=#a8d08d;spacingTop=0;spacingBottom=0;spacingLeft=0;spacingRight=0;verticalAlign=middle;html=1;labelBackgroundColor=#ffffff;rounded=0;exitX=0.5;exitY=0;exitDx=0;exitDy=0;exitPerimeter=0;entryX=0.5;entryY=1.04;entryDx=0;entryDy=0;entryPerimeter=0;" parent="1" source="10" target="9" edge="1">
            <mxGeometry relative="1" as="geometry">
              <mxPoint as="offset" />
              <Array as="points">
                <mxPoint x="512" y="438.12" />
                <mxPoint x="570" y="438.12" />
              </Array>
            </mxGeometry>
          </mxCell>
        </UserObject>
        <UserObject label="" tags="连接线" id="41">
          <mxCell style="vsdxID=18;edgeStyle=none;startArrow=classic;endArrow=classic;startSize=5;endSize=5;strokeColor=#a8d08d;spacingTop=0;spacingBottom=0;spacingLeft=0;spacingRight=0;verticalAlign=middle;html=1;labelBackgroundColor=#ffffff;rounded=0;exitX=0.5;exitY=1.04;exitDx=0;exitDy=0;exitPerimeter=0;entryX=0.5;entryY=0;entryDx=0;entryDy=0;entryPerimeter=0;" parent="1" source="9" target="11" edge="1">
            <mxGeometry relative="1" as="geometry">
              <mxPoint x="10" as="offset" />
              <Array as="points" />
            </mxGeometry>
          </mxCell>
        </UserObject>
      </root>
    </mxGraphModel>
  </diagram>
  <diagram id="DAJsYDLDtMMYqQMyJ5LI" name="第 2 页">
    <mxGraphModel dx="1176" dy="679" grid="1" gridSize="10" guides="1" tooltips="1" connect="1" arrows="1" fold="1" page="1" pageScale="1" pageWidth="827" pageHeight="1169" math="0" shadow="0">
      <root>
        <mxCell id="0" />
        <mxCell id="1" parent="0" />
        <mxCell id="03B7wAK-Qa4nPncSnB8B-1" value="" style="rounded=1;whiteSpace=wrap;html=1;fillColor=#FFFF99;" vertex="1" parent="1">
          <mxGeometry x="80" y="120" width="430" height="230" as="geometry" />
        </mxCell>
        <mxCell id="03B7wAK-Qa4nPncSnB8B-2" value="" style="rounded=1;whiteSpace=wrap;html=1;fillColor=#99FF99;" vertex="1" parent="1">
          <mxGeometry x="300" y="150" width="200" height="190" as="geometry" />
        </mxCell>
        <mxCell id="03B7wAK-Qa4nPncSnB8B-3" value="" style="rounded=1;whiteSpace=wrap;html=1;fillColor=#99FF99;" vertex="1" parent="1">
          <mxGeometry x="90" y="150" width="140" height="190" as="geometry" />
        </mxCell>
        <mxCell id="03B7wAK-Qa4nPncSnB8B-4" value="XC7Z010/XC7Z020" style="rounded=1;whiteSpace=wrap;html=1;fillColor=#FFB366;" vertex="1" parent="1">
          <mxGeometry x="100" y="180" width="120" height="30" as="geometry" />
        </mxCell>
        <mxCell id="03B7wAK-Qa4nPncSnB8B-5" value="512MB/1GB DDR3" style="rounded=1;whiteSpace=wrap;html=1;fillColor=#FFB366;" vertex="1" parent="1">
          <mxGeometry x="100" y="220" width="120" height="30" as="geometry" />
        </mxCell>
        <mxCell id="03B7wAK-Qa4nPncSnB8B-6" value="8GB EMMC" style="rounded=1;whiteSpace=wrap;html=1;fillColor=#FFB366;" vertex="1" parent="1">
          <mxGeometry x="100" y="260" width="120" height="30" as="geometry" />
        </mxCell>
        <mxCell id="03B7wAK-Qa4nPncSnB8B-7" value="16M QSPI FLASH" style="rounded=1;whiteSpace=wrap;html=1;fillColor=#FFB366;" vertex="1" parent="1">
          <mxGeometry x="100" y="300" width="120" height="30" as="geometry" />
        </mxCell>
        <mxCell id="03B7wAK-Qa4nPncSnB8B-8" value="Core Board" style="text;html=1;strokeColor=none;fillColor=none;align=center;verticalAlign=middle;whiteSpace=wrap;rounded=0;" vertex="1" parent="1">
          <mxGeometry x="100" y="150" width="120" height="30" as="geometry" />
        </mxCell>
        <mxCell id="03B7wAK-Qa4nPncSnB8B-9" value="" style="shape=flexArrow;endArrow=classic;startArrow=classic;html=1;rounded=0;exitX=1;exitY=0.5;exitDx=0;exitDy=0;width=30.64516129032258;endSize=6.204838709677419;fillColor=#CC99FF;" edge="1" parent="1" source="03B7wAK-Qa4nPncSnB8B-3">
          <mxGeometry width="100" height="100" relative="1" as="geometry">
            <mxPoint x="240" y="250" as="sourcePoint" />
            <mxPoint x="300" y="245" as="targetPoint" />
          </mxGeometry>
        </mxCell>
        <mxCell id="03B7wAK-Qa4nPncSnB8B-10" value="&lt;font style=&quot;font-size: 8px;&quot;&gt;DDR3&lt;br&gt;Socket&lt;/font&gt;" style="edgeLabel;html=1;align=center;verticalAlign=middle;resizable=0;points=[];labelBackgroundColor=none;spacing=0;" vertex="1" connectable="0" parent="03B7wAK-Qa4nPncSnB8B-9">
          <mxGeometry relative="1" as="geometry">
            <mxPoint x="-1" y="-1" as="offset" />
          </mxGeometry>
        </mxCell>
        <mxCell id="03B7wAK-Qa4nPncSnB8B-11" value="PS 1000Base-T Ethernet x 1" style="rounded=1;whiteSpace=wrap;html=1;fillColor=#66B2FF;strokeColor=default;" vertex="1" parent="1">
          <mxGeometry x="310" y="180" width="180" height="20" as="geometry" />
        </mxCell>
        <mxCell id="03B7wAK-Qa4nPncSnB8B-12" value="PL 1000Base-T Ethernet x 6" style="rounded=1;whiteSpace=wrap;html=1;fillColor=#66B2FF;strokeColor=default;" vertex="1" parent="1">
          <mxGeometry x="310" y="213" width="180" height="20" as="geometry" />
        </mxCell>
        <mxCell id="03B7wAK-Qa4nPncSnB8B-13" value="MyJTAG Module" style="rounded=1;whiteSpace=wrap;html=1;fillColor=#66B2FF;" vertex="1" parent="1">
          <mxGeometry x="310" y="245" width="180" height="20" as="geometry" />
        </mxCell>
        <mxCell id="03B7wAK-Qa4nPncSnB8B-14" value="SCSI20 x 2" style="rounded=1;whiteSpace=wrap;html=1;fillColor=#66B2FF;" vertex="1" parent="1">
          <mxGeometry x="310" y="278" width="180" height="20" as="geometry" />
        </mxCell>
        <mxCell id="03B7wAK-Qa4nPncSnB8B-15" value="Base Board" style="text;html=1;strokeColor=none;fillColor=none;align=center;verticalAlign=middle;whiteSpace=wrap;rounded=0;" vertex="1" parent="1">
          <mxGeometry x="310" y="150" width="180" height="30" as="geometry" />
        </mxCell>
        <mxCell id="03B7wAK-Qa4nPncSnB8B-16" value="SD/OLED/FAN/USB-C" style="rounded=1;whiteSpace=wrap;html=1;fillColor=#66B2FF;" vertex="1" parent="1">
          <mxGeometry x="310" y="310" width="180" height="20" as="geometry" />
        </mxCell>
        <mxCell id="03B7wAK-Qa4nPncSnB8B-17" value="MyOECU" style="text;html=1;strokeColor=none;fillColor=none;align=center;verticalAlign=middle;whiteSpace=wrap;rounded=0;" vertex="1" parent="1">
          <mxGeometry x="262" y="120" width="60" height="30" as="geometry" />
        </mxCell>
      </root>
    </mxGraphModel>
  </diagram>
</mxfile>
